<?xml version="1.0" encoding="UTF-8"?> <svg xmlns="http://www.w3.org/2000/svg" xmlns:xlink="http://www.w3.org/1999/xlink" xmlns:xodm="http://www.corel.com/coreldraw/odm/2003" xml:space="preserve" width="121.288mm" height="31.1546mm" version="1.1" style="shape-rendering:geometricPrecision; text-rendering:geometricPrecision; image-rendering:optimizeQuality; fill-rule:evenodd; clip-rule:evenodd" viewBox="0 0 6072.27 1559.75"> <defs> <style type="text/css"> .str0 {stroke:#45B653;stroke-width:11.35;stroke-miterlimit:10} .fil1 {fill:none;fill-rule:nonzero} .fil2 {fill:#FEFEFE;fill-rule:nonzero} .fil0 {fill:#45B653;fill-rule:nonzero} </style> </defs> <g id="Layer_x0020_1"> <metadata id="CorelCorpID_0Corel-Layer"></metadata> <polygon class="fil0" points="1339.18,1551.53 1339.18,1413.57 1432.78,1413.57 1432.78,1425.93 1352.08,1425.93 1352.08,1473.37 1417.7,1473.37 1417.7,1485.72 1352.08,1485.72 1352.08,1538.99 1435.33,1538.99 1435.33,1551.53 "></polygon> <polygon class="fil1 str0" points="1339.18,1551.53 1339.18,1413.57 1432.78,1413.57 1432.78,1425.93 1352.08,1425.93 1352.08,1473.37 1417.7,1473.37 1417.7,1485.72 1352.08,1485.72 1352.08,1538.99 1435.33,1538.99 1435.33,1551.53 "></polygon> <path class="fil0" d="M2347.22 1551.53c-22.53,-27.87 -41.55,-51.38 -57.08,-70.53 -15.51,-19.14 -28,-34.6 -37.43,-46.36 0.11,11.76 0.22,27.25 0.27,46.45 0.06,19.2 0.11,42.69 0.11,70.44l-13.1 0 0 -137.96 11.64 0c22.53,27.87 41.59,51.43 57.15,70.7 15.58,19.27 28.03,34.65 37.35,46.16 -0.13,-11.76 -0.22,-27.2 -0.29,-46.34 -0.05,-19.15 -0.09,-42.66 -0.09,-70.53l13.09 0 0 137.96 -11.63 0z"></path> <path class="fil1 str0" d="M2347.22 1551.53c-22.53,-27.87 -41.55,-51.38 -57.08,-70.53 -15.51,-19.14 -28,-34.6 -37.43,-46.36 0.11,11.76 0.22,27.25 0.27,46.45 0.06,19.2 0.11,42.69 0.11,70.44l-13.1 0 0 -137.96 11.64 0c22.53,27.87 41.59,51.43 57.15,70.7 15.58,19.27 28.03,34.65 37.35,46.16 -0.13,-11.76 -0.22,-27.2 -0.29,-46.34 -0.05,-19.15 -0.09,-42.66 -0.09,-70.53l13.09 0 0 137.96 -11.63 0z"></path> <polygon class="fil0" points="3178.02,1551.53 3178.02,1413.57 3271.63,1413.57 3271.63,1425.93 3190.93,1425.93 3190.93,1473.37 3256.54,1473.37 3256.54,1485.72 3190.93,1485.72 3190.93,1538.99 3274.17,1538.99 3274.17,1551.53 "></polygon> <polygon class="fil1 str0" points="3178.02,1551.53 3178.02,1413.57 3271.63,1413.57 3271.63,1425.93 3190.93,1425.93 3190.93,1473.37 3256.54,1473.37 3256.54,1485.72 3190.93,1485.72 3190.93,1538.99 3274.17,1538.99 3274.17,1551.53 "></polygon> <path class="fil0" d="M4200.25 1551.53l-57.63 -56.17 -42.33 0 0 56.17 -12.91 0 0 -137.96 47.62 0c23.26,0 40.45,3.46 51.54,10.35 11.07,6.92 16.61,16.8 16.61,29.64 0,5.44 -1.13,10.46 -3.43,14.99 -2.31,4.54 -5.42,8.57 -9.38,12.1 -3.92,3.49 -8.55,6.41 -13.9,8.71 -5.34,2.31 -11.07,3.94 -17.28,4.91l59.28 57.26 -18.17 0zm-11.91 -107.6c-1.27,-3.28 -3.92,-6.25 -7.93,-8.92 -3.99,-2.67 -9.71,-4.84 -17.15,-6.53 -7.45,-1.72 -17.36,-2.54 -29.74,-2.54l-33.24 0 0 57.24 45.43 0c7.52,0 14.04,-0.87 19.64,-2.61 5.56,-1.77 10.21,-4.05 13.9,-6.83 3.69,-2.77 6.45,-5.94 8.27,-9.45 1.82,-3.49 2.74,-7.08 2.74,-10.72 0,-3.16 -0.66,-6.36 -1.91,-9.63z"></path> <path class="fil1 str0" d="M4200.25 1551.53l-57.63 -56.17 -42.33 0 0 56.17 -12.91 0 0 -137.96 47.62 0c23.26,0 40.45,3.46 51.54,10.35 11.07,6.92 16.61,16.8 16.61,29.64 0,5.44 -1.13,10.46 -3.43,14.99 -2.31,4.54 -5.42,8.57 -9.38,12.1 -3.92,3.49 -8.55,6.41 -13.9,8.71 -5.34,2.31 -11.07,3.94 -17.28,4.91l59.28 57.26 -18.17 0zm-11.91 -107.6c-1.27,-3.28 -3.92,-6.25 -7.93,-8.92 -3.99,-2.67 -9.71,-4.84 -17.15,-6.53 -7.45,-1.72 -17.36,-2.54 -29.74,-2.54l-33.24 0 0 57.24 45.43 0c7.52,0 14.04,-0.87 19.64,-2.61 5.56,-1.77 10.21,-4.05 13.9,-6.83 3.69,-2.77 6.45,-5.94 8.27,-9.45 1.82,-3.49 2.74,-7.08 2.74,-10.72 0,-3.16 -0.66,-6.36 -1.91,-9.63z"></path> <path class="fil0" d="M5132.65 1448.1c-3.4,-4.36 -6.67,-8.11 -9.82,-11.26 -3.14,-3.14 -6.5,-5.72 -10.08,-7.72 -3.57,-2 -7.44,-3.48 -11.55,-4.45 -4.1,-0.97 -8.78,-1.47 -13.97,-1.47 -6.55,0 -13.44,1.01 -20.65,3 -7.2,2.01 -13.85,5.33 -19.91,10 -6.06,4.66 -11.05,10.79 -15.01,18.37 -3.93,7.57 -5.88,16.94 -5.88,28.06 0,9.47 1.61,17.89 4.8,25.27 3.21,7.38 7.63,13.6 13.28,18.63 5.64,5.04 12.19,8.85 19.73,11.44 7.5,2.61 15.56,3.92 24.16,3.92 6.78,0 13.72,-0.94 20.8,-2.82 7.1,-1.87 13.67,-4.65 19.73,-8.27l0 -32.18 -52.72 0 0 -12.54 65.61 0 0 51.08c-4.72,3.16 -9.29,5.78 -13.7,7.9 -4.44,2.14 -8.87,3.86 -13.28,5.19 -4.42,1.34 -8.92,2.3 -13.44,2.91 -4.54,0.59 -9.31,0.9 -14.27,0.9 -9.7,0 -18.97,-1.59 -27.8,-4.73 -8.87,-3.14 -16.67,-7.79 -23.46,-13.9 -6.78,-6.11 -12.22,-13.6 -16.27,-22.45 -4.06,-8.83 -6.07,-18.96 -6.07,-30.36 0,-13.07 2.35,-24.18 7.06,-33.26 4.73,-9.08 10.74,-16.48 18.01,-22.16 7.24,-5.7 15.2,-9.82 23.81,-12.36 8.6,-2.54 16.83,-3.81 24.71,-3.81 6.89,0 13.03,0.64 18.35,1.91 5.34,1.27 10.23,3.18 14.64,5.72 4.42,2.54 8.53,5.7 12.35,9.45 3.81,3.76 7.66,8.13 11.53,13.09l-10.7 6.9z"></path> <path class="fil1 str0" d="M5132.65 1448.1c-3.4,-4.36 -6.67,-8.11 -9.82,-11.26 -3.14,-3.14 -6.5,-5.72 -10.08,-7.72 -3.57,-2 -7.44,-3.48 -11.55,-4.45 -4.1,-0.97 -8.78,-1.47 -13.97,-1.47 -6.55,0 -13.44,1.01 -20.65,3 -7.2,2.01 -13.85,5.33 -19.91,10 -6.06,4.66 -11.05,10.79 -15.01,18.37 -3.93,7.57 -5.88,16.94 -5.88,28.06 0,9.47 1.61,17.89 4.8,25.27 3.21,7.38 7.63,13.6 13.28,18.63 5.64,5.04 12.19,8.85 19.73,11.44 7.5,2.61 15.56,3.92 24.16,3.92 6.78,0 13.72,-0.94 20.8,-2.82 7.1,-1.87 13.67,-4.65 19.73,-8.27l0 -32.18 -52.72 0 0 -12.54 65.61 0 0 51.08c-4.72,3.16 -9.29,5.78 -13.7,7.9 -4.44,2.14 -8.87,3.86 -13.28,5.19 -4.42,1.34 -8.92,2.3 -13.44,2.91 -4.54,0.59 -9.31,0.9 -14.27,0.9 -9.7,0 -18.97,-1.59 -27.8,-4.73 -8.87,-3.14 -16.67,-7.79 -23.46,-13.9 -6.78,-6.11 -12.22,-13.6 -16.27,-22.45 -4.06,-8.83 -6.07,-18.96 -6.07,-30.36 0,-13.07 2.35,-24.18 7.06,-33.26 4.73,-9.08 10.74,-16.48 18.01,-22.16 7.24,-5.7 15.2,-9.82 23.81,-12.36 8.6,-2.54 16.83,-3.81 24.71,-3.81 6.89,0 13.03,0.64 18.35,1.91 5.34,1.27 10.23,3.18 14.64,5.72 4.42,2.54 8.53,5.7 12.35,9.45 3.81,3.76 7.66,8.13 11.53,13.09l-10.7 6.9z"></path> <path class="fil0" d="M6001.28 1493l0 58.53 -12.89 0 0 -58.53 -59.8 -79.44 15.61 0 27.63 36.91c3.9,5.21 7.7,10.33 11.46,15.35 3.74,5.04 7.58,10.08 11.44,15.19 3.91,-5.21 7.7,-10.37 11.46,-15.45 3.74,-5.1 7.56,-10.17 11.46,-15.27l27.61 -36.72 15.65 0 -59.63 79.44z"></path> <path class="fil1 str0" d="M6001.28 1493l0 58.53 -12.89 0 0 -58.53 -59.8 -79.44 15.61 0 27.63 36.91c3.9,5.21 7.7,10.33 11.46,15.35 3.74,5.04 7.58,10.08 11.44,15.19 3.91,-5.21 7.7,-10.37 11.46,-15.45 3.74,-5.1 7.56,-10.17 11.46,-15.27l27.61 -36.72 15.65 0 -59.63 79.44z"></path> <path class="fil2" d="M1909.01 555.49c53.29,0 98.66,4.42 136.16,13.27 37.53,8.78 68,22.76 91.49,41.94 23.49,19.13 40.45,43.93 50.99,74.34 10.51,30.41 15.75,67.47 15.75,111.25l0 156.84c0,43.76 -5.24,81.05 -15.75,111.71 -10.54,30.73 -27.5,55.62 -50.99,74.82 -23.49,19.12 -53.95,32.95 -91.49,41.47 -37.49,8.53 -82.87,12.8 -136.16,12.8l-324.8 0c-53.29,0 -98.47,-4.27 -135.65,-12.8 -37.16,-8.52 -67.47,-22.34 -90.9,-41.47 -23.51,-19.2 -40.66,-44.09 -51.52,-74.82 -10.86,-30.66 -16.28,-67.95 -16.28,-111.71l0 -156.84c0,-43.78 5.42,-80.84 16.28,-111.25 10.86,-30.41 28.01,-55.21 51.52,-74.34 23.44,-19.18 53.74,-33.17 90.9,-41.94 37.18,-8.85 82.36,-13.27 135.65,-13.27l324.8 0zm-458.35 387.61c0,23.7 2.29,43.66 6.87,59.73 4.58,16.11 12.06,28.89 22.6,38.31 10.51,9.41 24.69,16.11 42.59,20.06 17.87,3.96 40.44,5.93 67.78,5.93l312.23 0c27.34,0 49.94,-1.98 67.84,-5.93 17.82,-3.96 32.07,-10.65 42.58,-20.06 10.49,-9.42 18.03,-22.2 22.61,-38.31 4.52,-16.07 6.8,-36.03 6.8,-59.73l0 -136.77c0,-23.76 -2.28,-43.68 -6.8,-59.79 -4.58,-16.07 -12.12,-28.86 -22.61,-38.25 -10.51,-9.41 -24.76,-16.13 -42.58,-20.08 -17.89,-3.94 -40.5,-5.92 -67.84,-5.92l-312.23 0c-27.34,0 -49.91,1.98 -67.78,5.92 -17.89,3.96 -32.08,10.67 -42.59,20.08 -10.54,9.4 -18.03,22.18 -22.6,38.25 -4.58,16.11 -6.87,36.03 -6.87,59.79l0 136.77z"></path> <path class="fil2" d="M4103.46 1173.02l-330.03 -545.75c-16.64,-27.24 -33.57,-45.53 -50.83,-54.9 -17.31,-9.41 -38.57,-14.09 -63.83,-14.09l-58.83 0c-21.26,0 -39.86,4.68 -55.83,14.09 -15.95,9.36 -32.27,27.66 -48.85,54.9l-327.06 545.75c-3.34,6.02 -4.17,11.02 -2.51,14.97 1.68,3.89 6.82,5.92 15.49,5.92l129.58 0c10.6,0 18.3,-3.96 22.96,-11.85l288.15 -488.51c2.65,-4.2 6.29,-6.34 10.97,-6.34l5.97 0c3.91,0 7.01,1.55 9.52,4.47 0.88,-0.78 1.39,-0.41 1.45,1.87l292.3 488.72c4.01,7.68 11.58,11.64 22.76,11.64l126.65 0c7.95,0 12.79,-2.03 14.44,-5.92 1.66,-3.96 0.83,-8.95 -2.49,-14.97z"></path> <path class="fil2" d="M6049.26 1173.02l-330.1 -545.75c-16.64,-27.24 -33.59,-45.53 -50.9,-54.9 -17.26,-9.41 -38.57,-14.09 -63.79,-14.09l-58.83 0c-21.27,0 -39.94,4.68 -55.88,14.09 -15.97,9.36 -32.23,27.66 -48.87,54.9l-327.09 545.75c-3.32,6.02 -4.15,11.02 -2.49,14.97 1.66,3.89 6.8,5.92 15.49,5.92l129.66 0c10.54,0 18.24,-3.96 22.87,-11.85l288.21 -488.51c2.7,-4.2 6.34,-6.34 11.02,-6.34l5.97 0c3.85,0 6.98,1.55 9.52,4.47 0.83,-0.78 1.39,-0.41 1.39,1.87l292.43 488.72c4.01,7.68 11.58,11.64 22.76,11.64l126.69 0c7.95,0 12.79,-2.03 14.45,-5.92 1.66,-3.96 0.83,-8.95 -2.49,-14.97z"></path> <path class="fil2" d="M2432.71 571.66c0,-6.87 -5.62,-12.47 -12.47,-12.47l-114.06 0c-6.87,0 -12.47,5.6 -12.47,12.47l0 609.79c0,6.85 5.6,12.47 12.47,12.47l114.06 0c6.85,0 12.47,-5.62 12.47,-12.47l0 -609.79z"></path> <path class="fil2" d="M3089.07 570.2c6.06,-6.06 4.01,-11.02 -4.58,-11.02l-163.39 0c-8.59,0 -20.56,4.94 -26.63,11l-226.97 225.86c-6.09,6.06 -18.07,11 -26.65,11l-116.96 0c-8.58,0 -15.6,7.01 -15.6,15.6l0 106.63c0,8.58 7.01,15.6 15.6,15.6l116.96 0c8.59,0 20.56,4.96 26.62,11.02l227.02 227.02c6.06,6.04 18.03,11.02 26.61,11.02l163.39 0c8.59,0 10.63,-4.98 4.58,-11.02l-295.32 -295.34c-6.06,-6.06 -6.06,-15.99 0,-22.04l295.32 -295.32z"></path> <path class="fil2" d="M4896.43 962.22l-165.63 0 131.12 220.05c4.05,7.7 11.58,11.66 22.76,11.66l126.69 0c7.95,0 12.79,-2.03 14.45,-5.93 1.66,-3.96 0.83,-8.94 -2.49,-14.98l-126.9 -210.79z"></path> <path class="fil2" d="M5067.78 684.67c-10.65,-24.69 -25.26,-46.57 -43.41,-65.08 -18.19,-18.56 -39.97,-33.38 -64.71,-44.03 -22.1,-9.47 -45.85,-14.82 -71.07,-15.86l-707.67 0 28.03 47.93c0,0 54.7,89.88 154.41,89.99l516.55 0.11c18.65,0 34.08,6.39 47.19,19.5 13.11,13.09 19.5,28.53 19.5,47.19 0,18.67 -6.39,34.11 -19.5,47.21 -13.11,13.09 -28.54,19.48 -47.19,19.48l-415.62 -0.41 0.25 0.46 -0.22 0 81.99 137.04 336.55 0c27.04,-0.36 52.93,-5.62 76.79,-15.92 24.69,-10.65 46.47,-25.25 64.66,-43.45 18.15,-18.19 32.82,-39.93 43.47,-64.68 10.65,-24.74 16.07,-51.61 16.07,-79.74 0,-28.12 -5.42,-55 -16.07,-79.74z"></path> <path class="fil2" d="M4180.91 758.13l0 336.55 0 50.01 0 36.76c0,6.85 5.62,12.47 12.47,12.47l114.06 0c6.87,0 12.49,-5.62 12.49,-12.47l0 -36.76 0 -50.01 0 -251.67 -0.58 -0.35c-78.47,-6.39 -126.42,-67.38 -138.43,-84.53z"></path> <path class="fil0" d="M733.29 662.61c0,0 6.39,13.16 17.64,36.31 11.02,23.15 27.82,55.86 45.36,96.15 17.89,40.2 199.8,468.58 230.27,599.88 19.71,84.88 40,139.72 40,139.72 6.01,9.57 14.04,14.32 24.02,14.43 9.98,-0.11 17.1,-9.22 21.18,-27.02 -25.94,-245.15 -378.47,-859.47 -378.47,-859.47 12.52,-15.67 25.19,-33.79 38.01,-54.4 12.79,-20.7 26.58,-45.65 41.33,-75.03l259.31 -495.78c4.45,-9.33 5.16,-18.53 1.87,-27.64 -3.37,-9.01 -11.64,-11.78 -24.89,-8.3 -198.83,167.96 -439.5,493.51 -472.43,538.55l1.73 -0.7c143.11,-106.51 451.02,-490.66 462.64,-507.62 12.38,-17.13 18.92,-27.31 18.92,-27.31 0,0 -5.79,10.63 -16.98,28.58 -10.96,18.12 -196.64,327.38 -401.87,471.82 -34.65,24.38 -62.5,40.68 -79.78,52.76 -4.2,4.04 -8.53,7.72 -13.11,10.96 -24.61,23.28 -39.88,54.09 -39.88,106.12 0,67.31 26.87,100.16 66.77,126.85l2.5 0.21c17.33,1.47 43.98,30.31 64.66,60.47l50.85 77.8c54.13,93.01 342.81,590.11 342.81,590.11 0,0 -19.13,-54.47 -45.74,-136.31 -99.31,-305.3 -256.73,-731.14 -256.73,-731.14zm-219.15 -79.06c-3.25,0.85 -6.62,1.6 -10.09,2.25 -4.07,0.71 -21.32,2.35 -44.09,4.35 -294.25,49.43 -449.7,173.03 -459.73,181.26 -0.05,0.25 0,0.37 0,0.6 4.84,-0.83 261.31,-75.63 518.71,13.67 14.14,4.89 22.69,6.06 22.69,6.06 0,0 -8.32,-1.92 -23.08,-4.38 -14.66,-2.91 -35.82,-5.81 -61.09,-9.62 -25.18,-4.51 -55,-6.41 -86.63,-10.86 -31.81,-2.14 -65.68,-6.18 -99.77,-6.82 -16.99,-0.51 -34,-1.01 -50.74,-1.52 -16.76,-0.99 -33.26,-0.71 -49.13,0.3 -31.79,2.1 -61.86,0.53 -87.09,4.24 -46.88,5.05 -79.02,8.49 -83.86,9.04 -0.62,5.17 -0.05,10.03 3.35,14.3 5.41,6.78 11.68,10.63 18.79,11.27 0,0 280.62,-17.34 535.18,2.38 -47.85,-26.63 -79.51,-72.86 -79.51,-125.43 0,-34.29 13.46,-65.87 36.1,-91.09z"></path> </g> </svg> 