<?xml version="1.0" encoding="UTF-8"?> <svg xmlns="http://www.w3.org/2000/svg" xmlns:xlink="http://www.w3.org/1999/xlink" xmlns:xodm="http://www.corel.com/coreldraw/odm/2003" xml:space="preserve" width="1433px" height="368px" version="1.1" style="shape-rendering:geometricPrecision; text-rendering:geometricPrecision; image-rendering:optimizeQuality; fill-rule:evenodd; clip-rule:evenodd" viewBox="0 0 717.43 184.28"> <defs> <style type="text/css"> .str0 {stroke:#45B653;stroke-width:1.34;stroke-miterlimit:10} .fil1 {fill:none;fill-rule:nonzero} .fil3 {fill:#FEFEFE;fill-rule:nonzero} .fil2 {fill:#FEFEFE;fill-rule:nonzero} .fil0 {fill:#45B653;fill-rule:nonzero} </style> </defs> <g id="Layer_x0020_1"> <metadata id="CorelCorpID_0Corel-Layer"></metadata> <polygon class="fil0" points="158.22,183.31 158.22,167.01 169.28,167.01 169.28,168.47 159.75,168.47 159.75,174.08 167.5,174.08 167.5,175.53 159.75,175.53 159.75,181.83 169.58,181.83 169.58,183.31 "></polygon> <polygon class="fil1 str0" points="158.22,183.31 158.22,167.01 169.28,167.01 169.28,168.47 159.75,168.47 159.75,174.08 167.5,174.08 167.5,175.53 159.75,175.53 159.75,181.83 169.58,181.83 169.58,183.31 "></polygon> <path class="fil0" d="M277.32 183.31c-2.66,-3.29 -4.91,-6.07 -6.74,-8.33 -1.84,-2.26 -3.31,-4.09 -4.43,-5.48 0.02,1.39 0.03,3.22 0.04,5.49 0,2.27 0.01,5.04 0.01,8.32l-1.55 0 0 -16.3 1.37 0c2.67,3.29 4.92,6.08 6.76,8.35 1.84,2.28 3.31,4.1 4.41,5.46 -0.01,-1.39 -0.02,-3.21 -0.03,-5.48 -0.01,-2.26 -0.01,-5.04 -0.01,-8.33l1.54 0 0 16.3 -1.37 0z"></path> <path class="fil1 str0" d="M277.32 183.31c-2.66,-3.29 -4.91,-6.07 -6.74,-8.33 -1.84,-2.26 -3.31,-4.09 -4.43,-5.48 0.02,1.39 0.03,3.22 0.04,5.49 0,2.27 0.01,5.04 0.01,8.32l-1.55 0 0 -16.3 1.37 0c2.67,3.29 4.92,6.08 6.76,8.35 1.84,2.28 3.31,4.1 4.41,5.46 -0.01,-1.39 -0.02,-3.21 -0.03,-5.48 -0.01,-2.26 -0.01,-5.04 -0.01,-8.33l1.54 0 0 16.3 -1.37 0z"></path> <polygon class="fil0" points="375.48,183.31 375.48,167.01 386.54,167.01 386.54,168.47 377,168.47 377,174.08 384.76,174.08 384.76,175.53 377,175.53 377,181.83 386.84,181.83 386.84,183.31 "></polygon> <polygon class="fil1 str0" points="375.48,183.31 375.48,167.01 386.54,167.01 386.54,168.47 377,168.47 377,174.08 384.76,174.08 384.76,175.53 377,175.53 377,181.83 386.84,181.83 386.84,183.31 "></polygon> <path class="fil0" d="M496.25 183.31l-6.81 -6.64 -5 0 0 6.64 -1.52 0 0 -16.3 5.62 0c2.75,0 4.78,0.41 6.09,1.22 1.31,0.82 1.96,1.99 1.96,3.51 0,0.64 -0.13,1.23 -0.4,1.77 -0.28,0.53 -0.64,1.01 -1.11,1.43 -0.46,0.41 -1.01,0.75 -1.64,1.03 -0.63,0.27 -1.31,0.46 -2.04,0.58l7 6.76 -2.15 0zm-1.4 -12.71c-0.15,-0.39 -0.47,-0.74 -0.94,-1.06 -0.47,-0.31 -1.15,-0.57 -2.03,-0.77 -0.88,-0.2 -2.05,-0.3 -3.51,-0.3l-3.93 0 0 6.76 5.37 0c0.89,0 1.66,-0.1 2.32,-0.3 0.66,-0.21 1.21,-0.48 1.64,-0.81 0.44,-0.33 0.76,-0.7 0.98,-1.12 0.21,-0.41 0.32,-0.83 0.32,-1.26 0,-0.38 -0.08,-0.76 -0.22,-1.14z"></path> <path class="fil1 str0" d="M496.25 183.31l-6.81 -6.64 -5 0 0 6.64 -1.52 0 0 -16.3 5.62 0c2.75,0 4.78,0.41 6.09,1.22 1.31,0.82 1.96,1.99 1.96,3.51 0,0.64 -0.13,1.23 -0.4,1.77 -0.28,0.53 -0.64,1.01 -1.11,1.43 -0.46,0.41 -1.01,0.75 -1.64,1.03 -0.63,0.27 -1.31,0.46 -2.04,0.58l7 6.76 -2.15 0zm-1.4 -12.71c-0.15,-0.39 -0.47,-0.74 -0.94,-1.06 -0.47,-0.31 -1.15,-0.57 -2.03,-0.77 -0.88,-0.2 -2.05,-0.3 -3.51,-0.3l-3.93 0 0 6.76 5.37 0c0.89,0 1.66,-0.1 2.32,-0.3 0.66,-0.21 1.21,-0.48 1.64,-0.81 0.44,-0.33 0.76,-0.7 0.98,-1.12 0.21,-0.41 0.32,-0.83 0.32,-1.26 0,-0.38 -0.08,-0.76 -0.22,-1.14z"></path> <path class="fil0" d="M606.41 171.09c-0.4,-0.51 -0.78,-0.96 -1.16,-1.33 -0.37,-0.37 -0.76,-0.68 -1.19,-0.91 -0.42,-0.24 -0.88,-0.41 -1.36,-0.53 -0.49,-0.11 -1.04,-0.17 -1.65,-0.17 -0.78,0 -1.59,0.12 -2.44,0.35 -0.85,0.24 -1.64,0.63 -2.35,1.18 -0.72,0.56 -1.31,1.28 -1.78,2.17 -0.46,0.9 -0.69,2.01 -0.69,3.32 0,1.12 0.19,2.11 0.57,2.99 0.38,0.87 0.9,1.6 1.56,2.2 0.67,0.59 1.44,1.04 2.34,1.35 0.88,0.31 1.83,0.46 2.85,0.46 0.8,0 1.62,-0.11 2.46,-0.33 0.84,-0.22 1.61,-0.55 2.33,-0.98l0 -3.8 -6.23 0 0 -1.48 7.75 0 0 6.03c-0.55,0.38 -1.09,0.69 -1.62,0.94 -0.52,0.25 -1.04,0.45 -1.57,0.61 -0.52,0.16 -1.05,0.27 -1.58,0.34 -0.54,0.07 -1.1,0.11 -1.69,0.11 -1.15,0 -2.24,-0.19 -3.28,-0.56 -1.05,-0.37 -1.97,-0.92 -2.78,-1.64 -0.8,-0.72 -1.44,-1.61 -1.92,-2.65 -0.48,-1.05 -0.71,-2.24 -0.71,-3.59 0,-1.54 0.27,-2.86 0.83,-3.93 0.56,-1.07 1.27,-1.95 2.13,-2.62 0.85,-0.67 1.79,-1.16 2.81,-1.46 1.02,-0.3 1.99,-0.45 2.92,-0.45 0.81,0 1.54,0.08 2.17,0.23 0.63,0.15 1.21,0.37 1.73,0.67 0.52,0.3 1.01,0.68 1.46,1.12 0.45,0.44 0.9,0.96 1.36,1.54l-1.27 0.82z"></path> <path class="fil1 str0" d="M606.41 171.09c-0.4,-0.51 -0.78,-0.96 -1.16,-1.33 -0.37,-0.37 -0.76,-0.68 -1.19,-0.91 -0.42,-0.24 -0.88,-0.41 -1.36,-0.53 -0.49,-0.11 -1.04,-0.17 -1.65,-0.17 -0.78,0 -1.59,0.12 -2.44,0.35 -0.85,0.24 -1.64,0.63 -2.35,1.18 -0.72,0.56 -1.31,1.28 -1.78,2.17 -0.46,0.9 -0.69,2.01 -0.69,3.32 0,1.12 0.19,2.11 0.57,2.99 0.38,0.87 0.9,1.6 1.56,2.2 0.67,0.59 1.44,1.04 2.34,1.35 0.88,0.31 1.83,0.46 2.85,0.46 0.8,0 1.62,-0.11 2.46,-0.33 0.84,-0.22 1.61,-0.55 2.33,-0.98l0 -3.8 -6.23 0 0 -1.48 7.75 0 0 6.03c-0.55,0.38 -1.09,0.69 -1.62,0.94 -0.52,0.25 -1.04,0.45 -1.57,0.61 -0.52,0.16 -1.05,0.27 -1.58,0.34 -0.54,0.07 -1.1,0.11 -1.69,0.11 -1.15,0 -2.24,-0.19 -3.28,-0.56 -1.05,-0.37 -1.97,-0.92 -2.78,-1.64 -0.8,-0.72 -1.44,-1.61 -1.92,-2.65 -0.48,-1.05 -0.71,-2.24 -0.71,-3.59 0,-1.54 0.27,-2.86 0.83,-3.93 0.56,-1.07 1.27,-1.95 2.13,-2.62 0.85,-0.67 1.79,-1.16 2.81,-1.46 1.02,-0.3 1.99,-0.45 2.92,-0.45 0.81,0 1.54,0.08 2.17,0.23 0.63,0.15 1.21,0.37 1.73,0.67 0.52,0.3 1.01,0.68 1.46,1.12 0.45,0.44 0.9,0.96 1.36,1.54l-1.27 0.82z"></path> <path class="fil0" d="M709.04 176.4l0 6.91 -1.52 0 0 -6.91 -7.07 -9.39 1.85 0 3.26 4.36c0.46,0.62 0.91,1.22 1.35,1.81 0.45,0.6 0.9,1.2 1.36,1.8 0.46,-0.62 0.91,-1.23 1.35,-1.83 0.44,-0.6 0.89,-1.2 1.36,-1.8l3.26 -4.34 1.85 0 -7.05 9.39z"></path> <path class="fil1 str0" d="M709.04 176.4l0 6.91 -1.52 0 0 -6.91 -7.07 -9.39 1.85 0 3.26 4.36c0.46,0.62 0.91,1.22 1.35,1.81 0.45,0.6 0.9,1.2 1.36,1.8 0.46,-0.62 0.91,-1.23 1.35,-1.83 0.44,-0.6 0.89,-1.2 1.36,-1.8l3.26 -4.34 1.85 0 -7.05 9.39z"></path> <path class="fil2" d="M225.55 65.63c6.29,0 11.65,0.52 16.08,1.57 4.44,1.03 8.04,2.69 10.81,4.95 2.78,2.26 4.78,5.19 6.03,8.79 1.24,3.59 1.86,7.97 1.86,13.14l0 18.53c0,5.17 -0.62,9.58 -1.86,13.2 -1.25,3.63 -3.25,6.57 -6.03,8.84 -2.77,2.26 -6.37,3.89 -10.81,4.9 -4.43,1.01 -9.79,1.51 -16.08,1.51l-38.38 0c-6.29,0 -11.63,-0.5 -16.02,-1.51 -4.39,-1.01 -7.98,-2.64 -10.74,-4.9 -2.78,-2.27 -4.81,-5.21 -6.09,-8.84 -1.28,-3.62 -1.92,-8.03 -1.92,-13.2l0 -18.53c0,-5.17 0.64,-9.55 1.92,-13.14 1.28,-3.6 3.31,-6.53 6.09,-8.79 2.76,-2.26 6.35,-3.92 10.74,-4.95 4.39,-1.05 9.73,-1.57 16.02,-1.57l38.38 0zm-54.16 45.8c0,2.8 0.27,5.15 0.81,7.05 0.54,1.91 1.43,3.42 2.67,4.53 1.25,1.11 2.92,1.9 5.04,2.37 2.11,0.47 4.77,0.7 8,0.7l36.89 0c3.23,0 5.9,-0.23 8.02,-0.7 2.1,-0.47 3.79,-1.26 5.03,-2.37 1.24,-1.11 2.13,-2.62 2.67,-4.53 0.54,-1.9 0.8,-4.25 0.8,-7.05l0 -16.16c0,-2.81 -0.26,-5.16 -0.8,-7.07 -0.54,-1.9 -1.43,-3.41 -2.67,-4.52 -1.24,-1.11 -2.93,-1.9 -5.03,-2.37 -2.12,-0.47 -4.79,-0.7 -8.02,-0.7l-36.89 0c-3.23,0 -5.89,0.23 -8,0.7 -2.12,0.47 -3.79,1.26 -5.04,2.37 -1.24,1.11 -2.13,2.62 -2.67,4.52 -0.54,1.91 -0.81,4.26 -0.81,7.07l0 16.16z"></path> <path class="fil2" d="M484.82 138.59l-39 -64.48c-1.96,-3.22 -3.96,-5.38 -6,-6.48 -2.05,-1.12 -4.56,-1.67 -7.54,-1.67l-6.95 0c-2.52,0 -4.71,0.55 -6.6,1.67 -1.88,1.1 -3.81,3.26 -5.77,6.48l-38.64 64.48c-0.4,0.71 -0.5,1.3 -0.3,1.77 0.2,0.46 0.81,0.7 1.83,0.7l15.31 0c1.25,0 2.16,-0.47 2.71,-1.4l34.05 -57.72c0.31,-0.49 0.74,-0.75 1.29,-0.75l0.71 0c0.46,0 0.83,0.19 1.12,0.53 0.11,-0.09 0.17,-0.05 0.18,0.22l34.53 57.74c0.47,0.91 1.37,1.38 2.69,1.38l14.96 0c0.94,0 1.51,-0.24 1.71,-0.7 0.2,-0.47 0.1,-1.06 -0.29,-1.77z"></path> <path class="fil2" d="M714.71 138.59l-39 -64.48c-1.97,-3.22 -3.97,-5.38 -6.01,-6.48 -2.04,-1.12 -4.56,-1.67 -7.54,-1.67l-6.95 0c-2.52,0 -4.72,0.55 -6.6,1.67 -1.89,1.1 -3.81,3.26 -5.78,6.48l-38.64 64.48c-0.4,0.71 -0.5,1.3 -0.3,1.77 0.2,0.46 0.8,0.7 1.83,0.7l15.32 0c1.25,0 2.16,-0.47 2.7,-1.4l34.05 -57.72c0.32,-0.49 0.75,-0.75 1.3,-0.75l0.71 0c0.45,0 0.82,0.19 1.12,0.53 0.1,-0.09 0.17,-0.05 0.17,0.22l34.55 57.74c0.47,0.91 1.37,1.38 2.69,1.38l14.97 0c0.94,0 1.51,-0.24 1.7,-0.7 0.2,-0.47 0.1,-1.06 -0.29,-1.77z"></path> <path class="fil2" d="M287.42 67.54c0,-0.81 -0.66,-1.47 -1.47,-1.47l-13.48 0c-0.81,0 -1.47,0.66 -1.47,1.47l0 72.05c0,0.81 0.66,1.47 1.47,1.47l13.48 0c0.81,0 1.47,-0.66 1.47,-1.47l0 -72.05z"></path> <path class="fil2" d="M364.97 67.37c0.71,-0.72 0.47,-1.3 -0.54,-1.3l-19.31 0c-1.01,0 -2.42,0.58 -3.14,1.3l-26.82 26.68c-0.72,0.72 -2.13,1.3 -3.15,1.3l-13.82 0c-1.01,0 -1.84,0.83 -1.84,1.84l0 12.6c0,1.02 0.83,1.84 1.84,1.84l13.82 0c1.02,0 2.43,0.59 3.15,1.31l26.82 26.82c0.72,0.71 2.13,1.3 3.14,1.3l19.31 0c1.01,0 1.25,-0.59 0.54,-1.3l-34.89 -34.9c-0.72,-0.71 -0.72,-1.88 0,-2.6l34.89 -34.89z"></path> <path class="fil2" d="M578.51 113.68l-19.57 0 15.49 26c0.48,0.91 1.37,1.38 2.69,1.38l14.97 0c0.94,0 1.51,-0.24 1.7,-0.7 0.2,-0.47 0.1,-1.06 -0.29,-1.77l-14.99 -24.91z"></path> <path class="fil2" d="M598.75 80.89c-1.26,-2.91 -2.98,-5.5 -5.13,-7.69 -2.15,-2.19 -4.72,-3.94 -7.64,-5.2 -2.62,-1.12 -5.42,-1.75 -8.4,-1.87l-83.61 0 3.31 5.66c0,0 6.46,10.62 18.24,10.63l61.03 0.02c2.21,0 4.03,0.75 5.58,2.3 1.55,1.54 2.3,3.37 2.3,5.57 0,2.21 -0.75,4.03 -2.3,5.58 -1.55,1.55 -3.37,2.3 -5.58,2.3l-49.1 -0.04 0.03 0.05 -0.03 0 9.69 16.19 39.76 0c3.2,-0.04 6.26,-0.66 9.08,-1.88 2.91,-1.26 5.48,-2.98 7.63,-5.13 2.15,-2.15 3.88,-4.72 5.14,-7.64 1.26,-2.93 1.9,-6.1 1.9,-9.43 0,-3.32 -0.64,-6.49 -1.9,-9.42z"></path> <path class="fil2" d="M493.97 89.57l0 39.76 0 5.91 0 4.35c0,0.81 0.66,1.47 1.47,1.47l13.48 0c0.81,0 1.47,-0.66 1.47,-1.47l0 -4.35 0 -5.91 0 -29.73 -0.07 -0.04c-9.27,-0.76 -14.93,-7.96 -16.35,-9.99z"></path> <path class="fil0" d="M86.64 78.29c1.48,-1.86 2.97,-4 4.49,-6.43 1.51,-2.45 3.14,-5.4 4.88,-8.87l30.64 -58.57c0.52,-1.1 0.61,-2.19 0.22,-3.27 -0.4,-1.06 -1.38,-1.39 -2.94,-0.98 -25.27,21.35 -56.27,64.25 -56.27,64.25 -0.15,0.19 -0.67,0.17 -0.82,0.35 16.16,-10.85 54.72,-58.96 56.14,-61.03 1.46,-2.02 2.23,-3.22 2.23,-3.22 0,0 -0.68,1.25 -2,3.37 -1.3,2.15 -23.24,38.68 -47.48,55.75 -4.1,2.88 -7.39,4.8 -9.43,6.23 -0.67,0.65 -1.38,1.22 -2.14,1.69 -1.29,0.76 -2.82,1.32 -4.61,1.65 -0.48,0.08 -2.52,0.28 -5.21,0.51 -34.76,5.84 -53.13,20.45 -54.31,21.42 -0.01,0.03 0,0.04 0,0.07 0.57,-0.1 30.87,-8.93 61.28,1.62 1.67,0.57 2.68,0.71 2.68,0.71 0,0 -0.98,-0.23 -2.73,-0.52 -1.73,-0.34 -4.23,-0.68 -7.21,-1.13 -2.98,-0.54 -6.5,-0.76 -10.24,-1.29 -3.76,-0.25 -7.76,-0.73 -11.79,-0.8 -2,-0.06 -4.01,-0.12 -5.99,-0.18 -1.98,-0.12 -3.93,-0.08 -5.81,0.03 -3.75,0.25 -7.3,0.07 -10.29,0.51 -5.53,0.59 -9.33,1 -9.9,1.06 -0.08,0.61 -0.01,1.19 0.39,1.69 0.64,0.8 1.38,1.26 2.22,1.33 0,0 34.91,-2.15 65.58,0.48 2.05,0.17 5.2,3.58 7.64,7.14l6.01 9.19c6.4,10.99 40.5,69.72 40.5,69.72 0,0 -2.26,-6.43 -5.4,-16.1 -11.73,-36.07 -30.33,-86.38 -30.33,-86.38z"></path> <path class="fil0" d="M86.64 78.29c0,0 0.75,1.55 2.08,4.29 1.3,2.73 3.29,6.6 5.36,11.36 2.11,4.75 23.61,55.36 27.21,70.87 2.33,10.03 4.72,16.51 4.72,16.51 0.71,1.13 1.66,1.69 2.84,1.7 1.18,-0.01 2.02,-1.09 2.5,-3.19 -3.06,-28.96 -44.71,-101.54 -44.71,-101.54z"></path> <path class="fil3" d="M60.04 79.7c0,-8.5 3.45,-12.21 8.51,-15.4 0.8,-0.5 1.48,-1.2 0.97,-1.03 -7.64,2.59 -13.04,8.97 -13.04,16.44 0,7.96 6.14,14.69 14.58,16.89 -6.39,-3.62 -11.02,-7.29 -11.02,-16.9z"></path> </g> </svg> 